<svg version="1.2" xmlns="http://www.w3.org/2000/svg" viewBox="0 0 1001 146" width="500" height="73">
	<title>pick1-svg</title>
	<style>
		.s0 { fill: #ffffff } 
	</style>
	<g id="Layer">
		<g id="Layer">
			<g id="Layer">
				<path id="Layer" fill-rule="evenodd" class="s0" d="m286.8 100.5c7.2-0.6 4 5.1-0.8 6-53.3 31.7-111.4-34.1-73.3-83.1-0.2 0-0.3 0-0.5 0 1.8-2.4 3.6-4.7 5.8-6.9 3.1 2.1-1.8 6-4.3 6.6-2.2 3.7-4 7.7-5.4 11.8 1.8-3.4 7.2-2.3 6.6 2-0.3 4.1-7.4 6.9-7.7 1.5-1.5 5.3-2.1 11.2-1.8 16.7 1.2-5.2 7.7-2.8 7.2 2-0.3 4.2-5.5 5.2-6.9 1.4 0.5 4.6 1.6 9.2 3.1 13.5 1.7 1.2 3.1 3.6 2.5 5.8 2 4 4.4 7.7 7.2 11.2-3.2-7.7 11.1-3.3 10.6 1.5 0.1 4-6.6 2.9-8.8 0.6 9.5 10.8 23.5 18.2 39 19.1-4.1-2.2 1-4.2 5.1-3.7 3.7 0.3 6.7 1.8 4.9 3.5 5.6-0.4 10.8-1.8 15.7-3.8-2.8 0.6-5.4-0.7-4.8-2.5 0.5-1.7 3.7-3.4 6.6-3.2zm-18.7-99.8c1.8-2 8.3 0.6 10.9 1.4-0.6 1.9-11.2 0.2-10.9-1.4zm32.4 24.3c0 5.8-11.7 0.9-11.1-3.1 0.5-5.8 11.4-0.9 11.1 3.1zm-73-15.1c0.5-3 11.5-6.1 10.9-1.2 0 3.1-11.9 6.3-10.9 1.2zm52.9 2.5c0.1 4.6-13.4 2.5-12.8-1.5 0.3-4.2 13.1-2.2 12.8 1.5zm-31.7-9.3c0.5-2.6 12.3-2.2 12 0.9 0 2.9-12.9 2.4-12-0.9zm39.3 3.4c2.9 1.7 5.5 3.5 8 5.5-2.9-0.2-7.8-3.1-8.1-4.8-0.1-0.3 0-0.6 0.1-0.7zm-68.3 40.4c0.5-6.4 12.3-5.7 11.7 0.8-0.6 6.3-12.6 5.9-11.7-0.8zm93.6 9.9c-0.5 6-7.9 4.2-7.4-1.2 0.6-5.9 8.1-4.3 7.4 1.2zm-32.9-26.8c-0.2 6.3-14.8 4-14-1.8 0.5-6 14.6-3.8 14 1.8zm20.4 14.2c-0.6 6.8-12.3 3.7-11.7-2 0.7-6.6 12.5-3.8 11.7 2zm-58.6-7c0.4-6.3 15.2-5.4 14.4 1.2-0.3 6.4-15.4 5.5-14.4-1.2zm70.3-2.9c0.6 1.7 1.2 3.5 1.8 5.2-1.4 5.1-7.7 0-7.2-3.7 0-3.4 3.6-3.6 5.4-1.5zm-33.5 18c-0.5 6.8-15.4 5.3-14.6-1.5 0.5-6.7 15.4-5.2 14.6 1.5zm-33.6-35.1c0.4-4.8 14.1-4.2 13.5 0.9-0.2 4.8-14.6 4.5-13.5-0.9zm60.9 72.5c-1.8 2.4-3.6 4.7-5.8 6.9-0.8-0.5-1.3-1.3-0.8-2.5 0.8-2.3 4-4.6 6.6-4.4zm-10.1-3.6c-0.5 5-12.8 6.5-12 0.2 0.5-5.1 12.8-6.6 12-0.2zm-27.5-6.4c-9.6-0.9-8.2-10.9 1.2-10.1 9.6 0.7 7.9 11-1.2 10.1zm24.1-9.7c-8.1-0.4-6.6-10.6 1.1-9.8 7.5 0.6 6.2 10.4-1.1 9.8zm23.9-7.8c-0.3 2.3-0.6 4.4-1.1 6.6-0.8-1.1 0.3-6.5 1.1-6.6zm-5.6 13.2c0 5.1-7.8 6.7-7.5 0.6 0.4-4.7 8.3-6.9 7.5-0.6zm-56.8-13.7c-0.5 6.8-15.4 5.3-14.6-1.5 0.4-6.9 15.5-5.2 14.6 1.5zm-30.6 2.6c7.3 1.1 7.9 10.9-0.5 9.7-6.9-0.9-7.2-10.6 0.5-9.7zm42.3 34.4c-9.2-0.9-7.4-8.4 1.2-7.8 9.2 0.8 7 8.6-1.2 7.8zm-43.5-72.3c0.3-5.1 12.8-6.5 12-0.2-0.5 5.1-12.8 6.6-12 0.2zm29.6 57.9c-0.5 6-14.6 3.9-14-1.8 0.3-6.5 14.9-4.2 14 1.8zm-14 15.8c0-1.8 2.8-3.1 6.5-2.6 8 1 8.6 7.6 0 6.5-3.5-0.5-6.5-2.1-6.5-3.9z"/>
			</g>
			<g id="Layer">
				<path id="Layer" class="s0" d="m205.7 19.5c-21.5 21.2-59.1 63.8-164.1 108 0 0 57.9-9.7 151.8-59.8-0.5-3.2-0.9-6.6-0.9-10 0.2-14.4 5.1-27.6 13.2-38.2z"/>
				<path id="Layer" class="s0" d="m0 141.3c0 0 99.4 2.9 210.3-39.8-7.1-7.2-12.4-16.3-15.4-26.3-29.6 16-114.4 58.1-194.9 66.1z"/>
				<path id="Layer" class="s0" d="m217.5 107.7c-18.1 7.4-65.8 24.7-134.1 33.5 0 0 82.7 8.9 180.5-21.5-2.9 0.5-5.8 0.8-8.9 0.8-14.1-0.2-27-5-37.5-12.8z"/>
			</g>
		</g>
		<g id="Layer">
			<path id="Layer" fill-rule="evenodd" class="s0" d="m376.9 83.1h-13.1l-4 22.4h-19.4l12.8-72.1h32.4c3.5 0 6.8 0.6 9.7 1.7 2.9 1.2 5.5 2.8 7.5 4.9 2 2.2 3.5 4.6 4.5 7.7 0.9 2.9 1.1 6.1 0.5 9.7-0.6 3.5-2 6.9-4 10-2 3.1-4.5 5.8-7.2 8.1-2.9 2.3-6 4.1-9.4 5.5-3.4 1.5-6.8 2.1-10.3 2.1zm4.6-33.5h-11.2l-2.8 15.5h11.2c1.1 0 2.2-0.2 3.2-0.6 1.1-0.5 2-0.9 2.9-1.7 0.9-0.8 1.5-1.5 2.2-2.5 0.7-1 0.9-2 1.2-3.1 0.2-1.1 0.2-2.2-0.2-3.1-0.4-0.9-0.8-1.7-1.4-2.5-0.6-0.8-1.4-1.2-2.3-1.7-0.7-0.2-1.7-0.3-2.8-0.3z"/>
			<path id="Layer" class="s0" d="m407.1 105.5l12.8-72.1h19.4l-12.8 72.1z"/>
			<path id="Layer" class="s0" d="m471.8 106.1c-5.1 0-9.7-0.9-13.8-2.9-4.1-2-7.5-4.6-10.1-8-2.8-3.4-4.6-7.2-5.7-11.7q-1.7-6.8-0.3-14.1c0.9-5.1 2.6-9.7 5.4-14.1 2.8-4.5 6-8.3 9.8-11.7 3.8-3.4 8.3-6 13.1-8 4.8-2 9.7-2.9 14.9-2.9 4.6 0 8.9 0.9 12.9 2.6 4 1.7 7.5 4.1 10.6 7.4l-16.4 12.4c-3.1-2.5-6.5-3.7-10.3-3.7-2.5 0-4.9 0.5-7.2 1.4-2.3 0.9-4.5 2.3-6.3 4-1.8 1.7-3.4 3.5-4.6 5.8-1.2 2.2-2.2 4.5-2.6 6.8-0.5 2.5-0.5 4.8 0.2 6.9 0.5 2.2 1.4 4.1 2.6 5.7 1.2 1.7 2.9 2.9 4.8 4 2 0.9 4.1 1.5 6.6 1.5 2.9 0 5.7-0.6 8.3-2 2.8-1.4 5.2-3.2 7.5-5.5l12.6 12c-4.5 4.5-9.5 8-14.9 10.4-5.9 2.5-11.4 3.7-17.1 3.7z"/>
			<path id="Layer" class="s0" d="m548.6 67.6l21.8 37.9h-23.4l-15.5-24.3-4.3 24.3h-19.8l12.8-72.1h19.8l-4.3 24.3 24-24.3h24.3z"/>
			<path id="Layer" class="s0" d="m629.6 105.5l12.8-72.1h57.5l-3.1 17.2h-38.8l-1.8 10.4h36.4l-3.1 17.2h-36.4l-1.8 10.3h38.7l-3.1 17.1h-57.3z"/>
			<path id="Layer" fill-rule="evenodd" class="s0" d="m746.5 105.5h-40.9l12.8-72.1h37.6c1.4 0 2.8 0.2 4.1 0.5 1.4 0.3 2.8 0.8 4 1.5 1.2 0.6 2.5 1.4 3.5 2.3 1.1 0.9 1.8 1.8 2.6 2.9 1.2 1.8 2 4 2.5 6.1 0.5 2.3 0.5 4.6 0 7.1-0.5 2.8-1.5 5.5-3.1 8-1.5 2.6-3.5 4.8-6 6.8 1.2 0.9 2.3 1.8 3.2 3.2 0.9 1.2 1.7 2.6 2.2 4.1 0.6 1.5 0.9 3.1 1.1 4.6 0.2 1.7 0.2 3.2-0.2 4.8-0.5 2.8-1.4 5.4-2.9 7.7-1.4 2.5-3.2 4.6-5.4 6.5-2.2 1.9-4.5 3.2-7.1 4.3-2.5 1.1-5.2 1.7-8 1.7zm1.2-57.4h-12.9l-2.6 14.6h12.9c2 0 3.8-0.8 5.5-2.2 1.7-1.4 2.8-3.2 3.1-5.2 0.3-2-0.2-3.7-1.2-5.2-1.2-1.4-2.8-2-4.8-2zm-4.3 27.6h-13.5l-2.6 14.6h13.5c2 0 3.8-0.8 5.5-2.2 1.7-1.4 2.6-3.2 3.1-5.2 0.3-2 0-3.7-1.2-5.1-1.1-1.3-2.8-2.1-4.8-2.1z"/>
			<path id="Layer" fill-rule="evenodd" class="s0" d="m817.5 105.5l-2-10h-22.1l-5.5 10h-20.3l39.3-72.1h17.1l14 72.1zm-6.6-45.8l-9.1 19.1h11.4z"/>
			<path id="Layer" fill-rule="evenodd" class="s0" d="m1000.2 36.2l-6.8 38.6c-0.3 1.7-1.8 3.1-3.5 3.1h-49.5c1-0.3 2.1-0.9 3.2-1.7 1.6-1.2 2.5-2.8 2.8-4.6 0.1-0.8 0-1.7-0.2-2.5-0.2-1-0.6-1.6-1.1-2.2-0.4-0.6-1-1.1-1.8-1.4-0.8-0.3-1.6-0.5-2.5-0.5-0.9 0-1.7 0.2-2.6 0.5-0.8 0.3-1.5 0.8-2.3 1.4-0.7 0.7-1.3 1.4-1.8 2.2 0 0-0.1 0.1-0.2 0.2l5.8-33.2c0.3-1.7 1.8-3.1 3.5-3.1h54.4c1.6 0 2.7 1.4 2.6 3.2zm-66.3 33.2q0-0.1 0-0.1zm34.4-25.2h-6.6l-6.1 11.4-2.2-11.4h-6.6l4.1 22.1h5.2zm21.6 0h-6.3l-1.8 10.8-4.9-10.8h-6.1l-3.8 22.1h6.3l1.8-10.8 4.9 10.8h6.2z"/>
			<path id="Layer" class="s0" d="m625.6 87.7h-25.5l9.5-54.2h-19.9l-12.8 72h45.5z"/>
			<path id="Layer" class="s0" d="m891.4 87.7h-25.5l9.5-54.2h-20l-12.6 72h45.5z"/>
			<path id="Layer" class="s0" d="m943 87.7h-25.5l9.5-54.2h-19.9l-12.8 72h45.5z"/>
		</g>
	</g>
</svg>